<?xml version="1.0" encoding="UTF-8"?>
<svg width="120px" height="30px" viewBox="0 0 120 30" version="1.1" xmlns="http://www.w3.org/2000/svg" xmlns:xlink="http://www.w3.org/1999/xlink">
    <!-- Generator: Sketch 60.1 (88133) - https://sketch.com -->
    <title>ILPA (1)</title>
    <desc>Created with Sketch.</desc>
    <defs>
        <path d="M36.5174438,9.80645161 L36.5174438,3.24293832 L35.6830989,3.24293832 L35.6830989,9.80645161 L36.5174438,9.80645161 Z M38.7330931,9.80645161 L38.7330931,4.71694766 L38.7609046,4.71694766 L40.8560374,9.80645161 L41.8294398,9.80645161 L41.8294398,3.24293832 L41.0599883,3.24293832 L41.0599883,8.34171277 L41.0321768,8.34171277 L38.9648556,3.24293832 L37.9636417,3.24293832 L37.9636417,9.80645161 L38.7330931,9.80645161 Z M44.045089,9.80645161 L44.045089,4.71694766 L44.0729005,4.71694766 L46.1680333,9.80645161 L47.1414357,9.80645161 L47.1414357,3.24293832 L46.3719843,3.24293832 L46.3719843,8.34171277 L46.3441728,8.34171277 L44.2768515,3.24293832 L43.2756376,3.24293832 L43.2756376,9.80645161 L44.045089,9.80645161 Z" id="path-1"></path>
        <path d="M50.9608813,9.96405009 C51.3131603,9.96405009 51.6268122,9.8806156 51.901837,9.71374662 C52.1768618,9.54687764 52.4117144,9.312025 52.6063949,9.0091887 C52.8010754,8.7063524 52.9494033,8.34325785 53.0513788,7.91990506 C53.1533543,7.49655228 53.2043421,7.02839208 53.2043421,6.51542447 C53.2043421,6.00245685 53.1533543,5.53429665 53.0513788,5.11094387 C52.9494033,4.68759108 52.8010754,4.32604162 52.6063949,4.02629548 C52.4117144,3.72654935 52.1768618,3.49478687 51.901837,3.33100806 C51.6268122,3.16722924 51.3131603,3.08533983 50.9608813,3.08533983 C50.602422,3.08533983 50.2825898,3.16722924 50.0013847,3.33100806 C49.7201795,3.49478687 49.4837818,3.72654935 49.2921915,4.02629548 C49.1006012,4.32604162 48.9553634,4.68759108 48.856478,5.11094387 C48.7575927,5.53429665 48.7081501,6.00245685 48.7081501,6.51542447 C48.7081501,7.02839208 48.7591378,7.49655228 48.8611133,7.91990506 C48.9630888,8.34325785 49.1114168,8.7063524 49.3060972,9.0091887 C49.5007777,9.312025 49.7371754,9.54687764 50.0152904,9.71374662 C50.2934054,9.8806156 50.6086023,9.96405009 50.9608813,9.96405009 Z M50.9608813,9.19459868 C50.732209,9.19459868 50.5313482,9.12506993 50.3582989,8.98601245 C50.1852496,8.84695496 50.0415568,8.65690973 49.9272207,8.41587676 C49.8128845,8.17484379 49.7279049,7.89054848 49.6722819,7.56299085 C49.616659,7.23543322 49.5888475,6.88624443 49.5888475,6.51542447 C49.5888475,6.14460451 49.616659,5.79541571 49.6722819,5.46785808 C49.7279049,5.14030045 49.8128845,4.85600514 49.9272207,4.61497217 C50.0415568,4.3739392 50.1852496,4.18389397 50.3582989,4.04483648 C50.5313482,3.905779 50.732209,3.83625025 50.9608813,3.83625025 C51.1833733,3.83625025 51.3795988,3.905779 51.549558,4.04483648 C51.7195171,4.18389397 51.8616648,4.3739392 51.976001,4.61497217 C52.0903371,4.85600514 52.1768618,5.14030045 52.2355749,5.46785808 C52.2942881,5.79541571 52.3236447,6.14460451 52.3236447,6.51542447 C52.3236447,6.88624443 52.2942881,7.23543322 52.2355749,7.56299085 C52.1768618,7.89054848 52.0903371,8.17484379 51.976001,8.41587676 C51.8616648,8.65690973 51.7195171,8.84695496 51.549558,8.98601245 C51.3795988,9.12506993 51.1833733,9.19459868 50.9608813,9.19459868 Z" id="path-2"></path>
        <polygon id="path-3" points="56.3749261 9.80645161 58.0158044 3.24293832 57.1258365 3.24293832 55.8743192 8.84231971 55.8557782 8.84231971 54.6042608 3.24293832 53.6864814 3.24293832 55.2995482 9.80645161"></polygon>
        <path d="M59.0357061,9.80645161 L59.4157966,8.26754878 L61.3162489,8.26754878 L61.6870688,9.80645161 L62.5584957,9.80645161 L60.9454289,3.24293832 L59.8422395,3.24293832 L58.1920907,9.80645161 L59.0357061,9.80645161 Z M61.2050029,7.60934335 L59.5270425,7.60934335 L60.3613875,4.02166023 L60.3984695,4.02166023 L61.2050029,7.60934335 Z" id="path-4"></path>
        <path d="M64.5518733,9.80645161 L64.5518733,3.95676674 L65.8033906,3.95676674 L65.8033906,3.24293832 L62.4752815,3.24293832 L62.4752815,3.95676674 L63.7267989,3.95676674 L63.7267989,9.80645161 L64.5518733,9.80645161 Z M67.3608345,9.80645161 L67.3608345,3.24293832 L66.5264896,3.24293832 L66.5264896,9.80645161 L67.3608345,9.80645161 Z M70.8187306,9.80645161 L72.4596089,3.24293832 L71.569641,3.24293832 L70.3181237,8.84231971 L70.2995827,8.84231971 L69.0480653,3.24293832 L68.1302859,3.24293832 L69.7433527,9.80645161 L70.8187306,9.80645161 Z M76.084374,9.80645161 L76.084374,9.05554119 L74.0355938,9.05554119 L74.0355938,6.74718694 L75.8618821,6.74718694 L75.8618821,6.05189952 L74.0355938,6.05189952 L74.0355938,3.98457824 L75.991669,3.98457824 L75.991669,3.24293832 L73.2290603,3.24293832 L73.2290603,9.80645161 L76.084374,9.80645161 Z M81.6281324,9.80645161 L81.6281324,9.02772969 L79.7740326,9.02772969 L79.7740326,3.24293832 L78.9396877,3.24293832 L78.9396877,9.80645161 L81.6281324,9.80645161 Z M85.2528975,9.80645161 L85.2528975,9.05554119 L83.2041173,9.05554119 L83.2041173,6.74718694 L85.0304056,6.74718694 L85.0304056,6.05189952 L83.2041173,6.05189952 L83.2041173,3.98457824 L85.1601926,3.98457824 L85.1601926,3.24293832 L82.3975839,3.24293832 L82.3975839,9.80645161 L85.2528975,9.80645161 Z M87.1162678,9.80645161 L87.1162678,4.71694766 L87.1440793,4.71694766 L89.2392121,9.80645161 L90.2126145,9.80645161 L90.2126145,3.24293832 L89.4431631,3.24293832 L89.4431631,8.34171277 L89.4153516,8.34171277 L87.3480303,3.24293832 L86.3468164,3.24293832 L86.3468164,9.80645161 L87.1162678,9.80645161 Z M93.1606332,9.80645161 C93.9393551,9.80645161 94.5450277,9.52679156 94.977651,8.96747145 C95.4102743,8.40815134 95.6265859,7.59698268 95.6265859,6.53396546 C95.6265859,5.46476791 95.4118194,4.648964 94.9822862,4.08655373 C94.5527531,3.52414345 93.9486256,3.24293832 93.1699037,3.24293832 L93.1699037,3.24293832 L91.6588124,3.24293832 L91.6588124,9.80645161 L93.1606332,9.80645161 Z M93.1606332,9.07408219 L92.4838868,9.07408219 L92.4838868,3.97530774 L93.1606332,3.97530774 C93.3893055,3.97530774 93.6040721,4.02784057 93.8049329,4.13290622 C94.0057937,4.23797188 94.178843,4.39557036 94.3240808,4.60570167 C94.4693186,4.81583298 94.5836548,5.08158729 94.6670893,5.40296459 C94.7505238,5.72434188 94.792241,6.10134218 94.792241,6.53396546 C94.792241,6.96040842 94.7505238,7.33277346 94.6670893,7.65106059 C94.5836548,7.96934772 94.4693186,8.23355695 94.3240808,8.44368826 C94.178843,8.65381957 94.0057937,8.81141805 93.8049329,8.91648371 C93.6040721,9.02154936 93.3893055,9.07408219 93.1606332,9.07408219 L93.1606332,9.07408219 Z M97.6197432,9.80645161 L97.6197432,3.24293832 L96.7853983,3.24293832 L96.7853983,9.80645161 L97.6197432,9.80645161 Z M99.8353925,9.80645161 L99.8353925,4.71694766 L99.863204,4.71694766 L101.958337,9.80645161 L102.931739,9.80645161 L102.931739,3.24293832 L102.162288,3.24293832 L102.162288,8.34171277 L102.134476,8.34171277 L100.067155,3.24293832 L99.0659411,3.24293832 L99.0659411,9.80645161 L99.8353925,9.80645161 Z M106.491611,9.9269681 C106.862431,9.9269681 107.176083,9.87907052 107.432566,9.78327536 C107.68905,9.68748021 107.913087,9.5592383 108.104678,9.39854965 L108.104678,9.39854965 L108.104678,6.2002275 L106.435988,6.2002275 L106.435988,6.92332642 L107.298144,6.92332642 L107.298144,8.9535657 C107.118915,9.10189369 106.85625,9.17605768 106.510152,9.17605768 C106.250578,9.17605768 106.024996,9.10807402 105.833405,8.9721067 C105.641815,8.83613938 105.482671,8.64918432 105.355975,8.41124151 C105.229278,8.1732987 105.133483,7.89209357 105.068589,7.5676261 C105.003696,7.24315864 104.971249,6.89242476 104.971249,6.51542447 C104.971249,6.15696517 105.000605,5.81550179 105.059319,5.49103433 C105.118032,5.16656686 105.209192,4.88227156 105.332798,4.63814842 C105.456405,4.39402528 105.609368,4.20088988 105.791688,4.05874223 C105.974008,3.91659458 106.191865,3.84552075 106.445258,3.84552075 C106.65539,3.84552075 106.85007,3.89496341 107.0293,3.99384874 C107.208529,4.09273406 107.366128,4.24106204 107.502095,4.43883269 L107.502095,4.43883269 L108.021243,3.87333225 C107.842013,3.60757795 107.616431,3.4098073 107.344497,3.28002031 C107.072562,3.15023333 106.760455,3.08533983 106.408176,3.08533983 C106.043537,3.08533983 105.717524,3.17186449 105.430139,3.34491381 C105.142753,3.51796312 104.900175,3.75745101 104.702404,4.06337748 C104.504634,4.36930395 104.353216,4.73085341 104.24815,5.14802586 C104.143084,5.56519832 104.090552,6.02099785 104.090552,6.51542447 C104.090552,7.02839208 104.144629,7.49500719 104.252785,7.91526981 C104.360941,8.33553244 104.51854,8.69399173 104.725581,8.9906477 C104.932622,9.28730367 105.18447,9.51752106 105.481126,9.68129987 C105.777782,9.84507869 106.11461,9.9269681 106.491611,9.9269681 Z" id="path-5"></path>
        <path d="M36.5081733,20.6548387 L36.5081733,17.8458775 L37.3981412,17.8458775 C37.6206332,17.8458775 37.8323096,17.8057053 38.0331704,17.725361 C38.2340312,17.6450167 38.4132609,17.5260453 38.5708594,17.3684468 C38.7284578,17.2108483 38.8536096,17.0115326 38.9463146,16.7704996 C39.0390196,16.5294666 39.0853721,16.2513517 39.0853721,15.9361547 C39.0853721,15.5838757 39.0312941,15.2887649 38.9231383,15.0508221 C38.8149825,14.8128792 38.6774701,14.622834 38.5106011,14.4806864 C38.3437321,14.3385387 38.1567771,14.2381083 37.9497359,14.1793951 C37.7426948,14.120682 37.5402889,14.0913254 37.3425182,14.0913254 L37.3425182,14.0913254 L35.6830989,14.0913254 L35.6830989,20.6548387 L36.5081733,20.6548387 Z M37.2590838,17.1505901 L36.5081733,17.1505901 L36.5081733,14.8051538 L37.2590838,14.8051538 C37.5557397,14.8051538 37.7967727,14.8963137 37.9821827,15.0786336 C38.1675927,15.2609534 38.2602976,15.5498839 38.2602976,15.9454252 C38.2602976,16.3471468 38.1675927,16.648438 37.9821827,16.8492989 C37.7967727,17.0501597 37.5557397,17.1505901 37.2590838,17.1505901 L37.2590838,17.1505901 Z M42.7750307,20.6548387 L42.7750307,19.8761168 L40.9209309,19.8761168 L40.9209309,14.0913254 L40.0865859,14.0913254 L40.0865859,20.6548387 L42.7750307,20.6548387 Z" id="path-6"></path>
        <path d="M44.119253,20.6548387 L44.4993435,19.1159359 L46.3997958,19.1159359 L46.7706157,20.6548387 L47.6420426,20.6548387 L46.0289758,14.0913254 L44.9257864,14.0913254 L43.2756376,20.6548387 L44.119253,20.6548387 Z M46.2885498,18.4577304 L44.6105894,18.4577304 L45.4449344,14.8700473 L45.4820164,14.8700473 L46.2885498,18.4577304 Z" id="path-7"></path>
        <path d="M49.6354202,20.6548387 L49.6354202,14.8051538 L50.8869375,14.8051538 L50.8869375,14.0913254 L47.5588284,14.0913254 L47.5588284,14.8051538 L48.8103458,14.8051538 L48.8103458,20.6548387 L49.6354202,20.6548387 Z M52.4351109,20.6548387 L52.4351109,17.688279 L54.2243172,17.688279 L54.2243172,16.9651801 L52.4351109,16.9651801 L52.4351109,14.8515063 L54.3633747,14.8515063 L54.3633747,14.0913254 L51.6100365,14.0913254 L51.6100365,20.6548387 L52.4351109,20.6548387 Z M57.3299343,20.8124372 C57.6822133,20.8124372 57.9958652,20.7290027 58.27089,20.5621337 C58.5459148,20.3952647 58.7807674,20.1604121 58.9754479,19.8575758 C59.1701284,19.5547395 59.3184564,19.1916449 59.4204319,18.7682922 C59.5224074,18.3449394 59.5733951,17.8767792 59.5733951,17.3638116 C59.5733951,16.8508439 59.5224074,16.3826837 59.4204319,15.959331 C59.3184564,15.5359782 59.1701284,15.1744287 58.9754479,14.8746826 C58.7807674,14.5749364 58.5459148,14.343174 58.27089,14.1793951 C57.9958652,14.0156163 57.6822133,13.9337269 57.3299343,13.9337269 C56.9714751,13.9337269 56.6516428,14.0156163 56.3704377,14.1793951 C56.0892326,14.343174 55.8528348,14.5749364 55.6612445,14.8746826 C55.4696542,15.1744287 55.3244164,15.5359782 55.2255311,15.959331 C55.1266458,16.3826837 55.0772031,16.8508439 55.0772031,17.3638116 C55.0772031,17.8767792 55.1281908,18.3449394 55.2301663,18.7682922 C55.3321418,19.1916449 55.4804698,19.5547395 55.6751503,19.8575758 C55.8698308,20.1604121 56.1062285,20.3952647 56.3843434,20.5621337 C56.6624584,20.7290027 56.9776554,20.8124372 57.3299343,20.8124372 Z M57.3299343,20.0429858 C57.101262,20.0429858 56.9004012,19.973457 56.7273519,19.8343995 C56.5543026,19.6953421 56.4106099,19.5052968 56.2962737,19.2642638 C56.1819376,19.0232309 56.096958,18.7389356 56.041335,18.4113779 C55.985712,18.0838203 55.9579005,17.7346315 55.9579005,17.3638116 C55.9579005,16.9929916 55.985712,16.6438028 56.041335,16.3162452 C56.096958,15.9886875 56.1819376,15.7043922 56.2962737,15.4633593 C56.4106099,15.2223263 56.5543026,15.0322811 56.7273519,14.8932236 C56.9004012,14.7541661 57.101262,14.6846373 57.3299343,14.6846373 C57.5524263,14.6846373 57.7486519,14.7541661 57.918611,14.8932236 C58.0885702,15.0322811 58.2307178,15.2223263 58.345054,15.4633593 C58.4593901,15.7043922 58.5459148,15.9886875 58.604628,16.3162452 C58.6633411,16.6438028 58.6926977,16.9929916 58.6926977,17.3638116 C58.6926977,17.7346315 58.6633411,18.0838203 58.604628,18.4113779 C58.5459148,18.7389356 58.4593901,19.0232309 58.345054,19.2642638 C58.2307178,19.5052968 58.0885702,19.6953421 57.918611,19.8343995 C57.7486519,19.973457 57.5524263,20.0429858 57.3299343,20.0429858 Z M61.5480114,20.6548387 L61.5480114,17.725361 L62.3081923,17.725361 L63.4206522,20.6548387 L64.3106201,20.6548387 L63.0869142,17.5677625 C63.2105209,17.5430412 63.3372177,17.4905084 63.4670047,17.410164 C63.5967917,17.3298197 63.7157631,17.2201188 63.8239189,17.0810613 C63.9320747,16.9420039 64.0201445,16.7735898 64.0881281,16.5758191 C64.1561118,16.3780485 64.1901036,16.146286 64.1901036,15.8805317 C64.1901036,15.5591544 64.1437511,15.2841296 64.0510461,15.0554573 C63.9583411,14.826785 63.8316443,14.641375 63.6709557,14.4992274 C63.510267,14.3570797 63.3233119,14.2535591 63.1100905,14.1886656 C62.896869,14.1237722 62.6697418,14.0913254 62.4287088,14.0913254 L62.4287088,14.0913254 L60.7322075,14.0913254 L60.7322075,20.6548387 L61.5480114,20.6548387 Z M62.3174628,17.0764261 L61.5480114,17.0764261 L61.5480114,14.7958833 L62.2989218,14.7958833 C62.4287088,14.7958833 62.5584958,14.8128792 62.6882828,14.8468711 C62.8180698,14.8808629 62.9324059,14.9411211 63.0312912,15.0276458 C63.1301766,15.1141705 63.2105209,15.2285066 63.2723242,15.3706543 C63.3341275,15.5128019 63.3650292,15.6951217 63.3650292,15.9176137 C63.3650292,16.2884337 63.269234,16.5742741 63.0776437,16.7751349 C62.8860534,16.9759957 62.6326598,17.0764261 62.3174628,17.0764261 L62.3174628,17.0764261 Z M66.0627444,20.6548387 L66.0627444,15.2223263 L66.0905559,15.2223263 L67.5367537,20.6548387 L68.2876642,20.6548387 L69.752403,15.2223263 L69.7802145,15.2223263 L69.7802145,20.6548387 L70.6052889,20.6548387 L70.6052889,14.0913254 L69.3259601,14.0913254 L67.9539262,19.3013458 L67.9168442,19.3013458 L66.5169989,14.0913254 L65.293293,14.0913254 L65.293293,20.6548387 L66.0627444,20.6548387 Z M73.8406931,20.6548387 L74.2207835,19.1159359 L76.1212358,19.1159359 L76.4920558,20.6548387 L77.3634827,20.6548387 L75.7504159,14.0913254 L74.6472265,14.0913254 L72.9970777,20.6548387 L73.8406931,20.6548387 Z M76.0099898,18.4577304 L74.3320295,18.4577304 L75.1663744,14.8700473 L75.2034564,14.8700473 L76.0099898,18.4577304 Z M79.35664,20.8124372 C79.6038533,20.8124372 79.8356158,20.7691749 80.0519274,20.6826502 C80.268239,20.5961255 80.4551941,20.4725189 80.6127926,20.3118302 C80.7703911,20.1511416 80.8955428,19.9518259 80.9882478,19.7138831 C81.0809528,19.4759402 81.1273053,19.2086409 81.1273053,18.9119849 C81.1273053,18.6462306 81.085588,18.412923 81.0021535,18.2120622 C80.9187191,18.0112014 80.8090181,17.836607 80.6730508,17.688279 C80.5370835,17.539951 80.3856654,17.4117091 80.2187964,17.3035533 C80.0519274,17.1953975 79.8819682,17.0980573 79.7089189,17.0115326 C79.5729516,16.9435489 79.4462548,16.87093 79.3288285,16.7936759 C79.2114022,16.7164217 79.1078816,16.6298971 79.0182668,16.5341019 C78.9286519,16.4383067 78.8575781,16.3301509 78.8050453,16.2096344 C78.7525125,16.0891179 78.726246,15.9454252 78.726246,15.7785562 C78.726246,15.5869659 78.7540575,15.4231871 78.8096805,15.2872198 C78.8653035,15.1512525 78.9394675,15.0384614 79.0321725,14.9488466 C79.1248775,14.8592317 79.2283981,14.7943382 79.3427342,14.7541661 C79.4570704,14.7139939 79.5729516,14.6939078 79.6903779,14.6939078 C80.0859192,14.6939078 80.4011162,14.8484162 80.6359688,15.1574328 L80.6359688,15.1574328 L81.1365758,14.5641209 C80.9697068,14.3539895 80.7611206,14.1963911 80.5108171,14.0913254 C80.2605136,13.9862598 79.9777634,13.9337269 79.6625664,13.9337269 C79.4462548,13.9337269 79.2330333,13.9708089 79.022902,14.0449729 C78.8127707,14.1191369 78.6258156,14.2334731 78.4620368,14.3879814 C78.298258,14.5424897 78.1669259,14.7371702 78.0680406,14.9720228 C77.9691553,15.2068755 77.9197126,15.4819003 77.9197126,15.7970972 C77.9197126,16.0628515 77.9552495,16.2930689 78.0263234,16.4877494 C78.0973972,16.6824299 78.1947374,16.8508439 78.3183441,16.9929916 C78.4419507,17.1351392 78.5825533,17.260291 78.7401518,17.3684468 C78.8977503,17.4766026 79.0661643,17.5739429 79.245394,17.6604675 C79.393722,17.7346315 79.5312344,17.8134308 79.6579312,17.8968652 C79.784628,17.9802997 79.8974191,18.0730047 79.9963044,18.1749802 C80.0951897,18.2769557 80.1724439,18.3912919 80.2280669,18.5179887 C80.2836899,18.6446855 80.3115014,18.7914684 80.3115014,18.9583374 C80.3115014,19.3106163 80.2218865,19.5794608 80.0426569,19.7648708 C79.8634272,19.9502808 79.6347549,20.0429858 79.35664,20.0429858 C79.1403283,20.0429858 78.9255618,19.9904529 78.7123403,19.8853873 C78.4991188,19.7803216 78.3214342,19.6350838 78.1792866,19.4496738 L78.1792866,19.4496738 L77.6879502,20.0522563 C77.8671798,20.2809286 78.1066677,20.4647935 78.4064138,20.603851 C78.70616,20.7429084 79.022902,20.8124372 79.35664,20.8124372 Z M83.4356595,20.8124372 C83.6828728,20.8124372 83.9146353,20.7691749 84.130947,20.6826502 C84.3472586,20.5961255 84.5342137,20.4725189 84.6918121,20.3118302 C84.8494106,20.1511416 84.9745624,19.9518259 85.0672674,19.7138831 C85.1599723,19.4759402 85.2063248,19.2086409 85.2063248,18.9119849 C85.2063248,18.6462306 85.1646076,18.412923 85.0811731,18.2120622 C84.9977386,18.0112014 84.8880377,17.836607 84.7520704,17.688279 C84.6161031,17.539951 84.4646849,17.4117091 84.2978159,17.3035533 C84.130947,17.1953975 83.9609878,17.0980573 83.7879385,17.0115326 C83.6519712,16.9435489 83.5252744,16.87093 83.407848,16.7936759 C83.2904217,16.7164217 83.1869011,16.6298971 83.0972863,16.5341019 C83.0076715,16.4383067 82.9365977,16.3301509 82.8840648,16.2096344 C82.831532,16.0891179 82.8052656,15.9454252 82.8052656,15.7785562 C82.8052656,15.5869659 82.8330771,15.4231871 82.8887001,15.2872198 C82.9443231,15.1512525 83.0184871,15.0384614 83.1111921,14.9488466 C83.2038971,14.8592317 83.3074176,14.7943382 83.4217538,14.7541661 C83.5360899,14.7139939 83.6519712,14.6939078 83.7693975,14.6939078 C84.1649388,14.6939078 84.4801358,14.8484162 84.7149884,15.1574328 L84.7149884,15.1574328 L85.2155953,14.5641209 C85.0487264,14.3539895 84.8401401,14.1963911 84.5898367,14.0913254 C84.3395332,13.9862598 84.056783,13.9337269 83.741586,13.9337269 C83.5252744,13.9337269 83.3120529,13.9708089 83.1019216,14.0449729 C82.8917903,14.1191369 82.7048352,14.2334731 82.5410564,14.3879814 C82.3772776,14.5424897 82.2459455,14.7371702 82.1470602,14.9720228 C82.0481748,15.2068755 81.9987322,15.4819003 81.9987322,15.7970972 C81.9987322,16.0628515 82.0342691,16.2930689 82.1053429,16.4877494 C82.1764167,16.6824299 82.273757,16.8508439 82.3973636,16.9929916 C82.5209703,17.1351392 82.6615729,17.260291 82.8191713,17.3684468 C82.9767698,17.4766026 83.1451839,17.5739429 83.3244135,17.6604675 C83.4727415,17.7346315 83.6102539,17.8134308 83.7369507,17.8968652 C83.8636476,17.9802997 83.9764386,18.0730047 84.075324,18.1749802 C84.1742093,18.2769557 84.2514634,18.3912919 84.3070864,18.5179887 C84.3627094,18.6446855 84.3905209,18.7914684 84.3905209,18.9583374 C84.3905209,19.3106163 84.3009061,19.5794608 84.1216765,19.7648708 C83.9424468,19.9502808 83.7137745,20.0429858 83.4356595,20.0429858 C83.2193479,20.0429858 83.0045813,19.9904529 82.7913598,19.8853873 C82.5781384,19.7803216 82.4004538,19.6350838 82.2583062,19.4496738 L82.2583062,19.4496738 L81.7669697,20.0522563 C81.9461994,20.2809286 82.1856872,20.4647935 82.4854334,20.603851 C82.7851795,20.7429084 83.1019216,20.8124372 83.4356595,20.8124372 Z M88.2841305,20.8124372 C88.6364095,20.8124372 88.9500614,20.7290027 89.2250862,20.5621337 C89.500111,20.3952647 89.7349636,20.1604121 89.9296441,19.8575758 C90.1243246,19.5547395 90.2726525,19.1916449 90.374628,18.7682922 C90.4766035,18.3449394 90.5275913,17.8767792 90.5275913,17.3638116 C90.5275913,16.8508439 90.4766035,16.3826837 90.374628,15.959331 C90.2726525,15.5359782 90.1243246,15.1744287 89.9296441,14.8746826 C89.7349636,14.5749364 89.500111,14.343174 89.2250862,14.1793951 C88.9500614,14.0156163 88.6364095,13.9337269 88.2841305,13.9337269 C87.9256712,13.9337269 87.605839,14.0156163 87.3246339,14.1793951 C87.0434287,14.343174 86.807031,14.5749364 86.6154407,14.8746826 C86.4238504,15.1744287 86.2786126,15.5359782 86.1797272,15.959331 C86.0808419,16.3826837 86.0313993,16.8508439 86.0313993,17.3638116 C86.0313993,17.8767792 86.082387,18.3449394 86.1843625,18.7682922 C86.286338,19.1916449 86.434666,19.5547395 86.6293464,19.8575758 C86.8240269,20.1604121 87.0604246,20.3952647 87.3385396,20.5621337 C87.6166546,20.7290027 87.9318515,20.8124372 88.2841305,20.8124372 Z M88.2841305,20.0429858 C88.0554582,20.0429858 87.8545974,19.973457 87.6815481,19.8343995 C87.5084988,19.6953421 87.364806,19.5052968 87.2504699,19.2642638 C87.1361337,19.0232309 87.0511541,18.7389356 86.9955311,18.4113779 C86.9399082,18.0838203 86.9120967,17.7346315 86.9120967,17.3638116 C86.9120967,16.9929916 86.9399082,16.6438028 86.9955311,16.3162452 C87.0511541,15.9886875 87.1361337,15.7043922 87.2504699,15.4633593 C87.364806,15.2223263 87.5084988,15.0322811 87.6815481,14.8932236 C87.8545974,14.7541661 88.0554582,14.6846373 88.2841305,14.6846373 C88.5066225,14.6846373 88.702848,14.7541661 88.8728072,14.8932236 C89.0427663,15.0322811 89.184914,15.2223263 89.2992501,15.4633593 C89.4135863,15.7043922 89.500111,15.9886875 89.5588241,16.3162452 C89.6175373,16.6438028 89.6468939,16.9929916 89.6468939,17.3638116 C89.6468939,17.7346315 89.6175373,18.0838203 89.5588241,18.4113779 C89.500111,18.7389356 89.4135863,19.0232309 89.2992501,19.2642638 C89.184914,19.5052968 89.0427663,19.6953421 88.8728072,19.8343995 C88.702848,19.973457 88.5066225,20.0429858 88.2841305,20.0429858 Z M93.7259134,20.8124372 C94.0967334,20.8124372 94.4119303,20.7336379 94.6715043,20.5760395 C94.9310783,20.418441 95.1442998,20.2098547 95.3111687,19.9502808 L95.3111687,19.9502808 L94.8105618,19.4033213 C94.7054961,19.582551 94.5648936,19.7339691 94.3887541,19.8575758 C94.2126146,19.9811824 94.0102087,20.0429858 93.7815364,20.0429858 C93.5281428,20.0429858 93.3071959,19.9719119 93.1186957,19.8297643 C92.9301956,19.6876166 92.7741422,19.4944812 92.6505355,19.2503581 C92.5269289,19.006235 92.4342239,18.7234847 92.3724206,18.4021074 C92.3106172,18.0807301 92.2797156,17.7377217 92.2797156,17.3730821 C92.2797156,17.0084424 92.3106172,16.6638889 92.3724206,16.3394214 C92.4342239,16.014954 92.5253838,15.7322037 92.6459003,15.4911708 C92.7664168,15.2501378 92.91938,15.0585475 93.10479,14.9163998 C93.2902,14.7742522 93.5096018,14.7031783 93.7629954,14.7031783 C93.9669464,14.7031783 94.1585367,14.7510759 94.3377664,14.8468711 C94.516996,14.9426662 94.6745945,15.0894491 94.8105618,15.2872198 L94.8105618,15.2872198 L95.3297097,14.7217193 C95.1504801,14.455965 94.9218078,14.2581944 94.6436928,14.1284074 C94.3655779,13.9986204 94.0596514,13.9337269 93.7259134,13.9337269 C93.3674541,13.9337269 93.0445317,14.0202516 92.7571463,14.1933009 C92.4697608,14.3663502 92.2256377,14.6058381 92.0247769,14.9117646 C91.823916,15.217691 91.6694077,15.5807856 91.5612519,16.0010482 C91.4530961,16.4213108 91.3990182,16.8786554 91.3990182,17.3730821 C91.3990182,17.8675087 91.451551,18.3233082 91.5566167,18.7404807 C91.6616823,19.1576531 91.8131005,19.5207477 92.0108711,19.8297643 C92.2086418,20.1387809 92.4527649,20.3798139 92.7432405,20.5528632 C93.0337162,20.7259125 93.3612738,20.8124372 93.7259134,20.8124372 Z M97.0262111,20.6548387 L97.0262111,14.0913254 L96.1918662,14.0913254 L96.1918662,20.6548387 L97.0262111,20.6548387 Z" id="path-8"></path>
        <path d="M100.196722,20.6548387 L100.576812,19.1159359 L102.477264,19.1159359 L102.848084,20.6548387 L103.719511,20.6548387 L102.106444,14.0913254 L101.003255,14.0913254 L99.3531063,20.6548387 L100.196722,20.6548387 Z M102.366018,18.4577304 L100.688058,18.4577304 L101.522403,14.8700473 L101.559485,14.8700473 L102.366018,18.4577304 Z" id="path-9"></path>
        <path d="M105.712889,20.6548387 L105.712889,14.8051538 L106.964406,14.8051538 L106.964406,14.0913254 L103.636297,14.0913254 L103.636297,14.8051538 L104.887814,14.8051538 L104.887814,20.6548387 L105.712889,20.6548387 Z M108.52185,20.6548387 L108.52185,14.0913254 L107.687505,14.0913254 L107.687505,20.6548387 L108.52185,20.6548387 Z M111.933394,20.8124372 C112.285673,20.8124372 112.599324,20.7290027 112.874349,20.5621337 C113.149374,20.3952647 113.384227,20.1604121 113.578907,19.8575758 C113.773588,19.5547395 113.921916,19.1916449 114.023891,18.7682922 C114.125867,18.3449394 114.176854,17.8767792 114.176854,17.3638116 C114.176854,16.8508439 114.125867,16.3826837 114.023891,15.959331 C113.921916,15.5359782 113.773588,15.1744287 113.578907,14.8746826 C113.384227,14.5749364 113.149374,14.343174 112.874349,14.1793951 C112.599324,14.0156163 112.285673,13.9337269 111.933394,13.9337269 C111.574934,13.9337269 111.255102,14.0156163 110.973897,14.1793951 C110.692692,14.343174 110.456294,14.5749364 110.264704,14.8746826 C110.073113,15.1744287 109.927876,15.5359782 109.82899,15.959331 C109.730105,16.3826837 109.680662,16.8508439 109.680662,17.3638116 C109.680662,17.8767792 109.73165,18.3449394 109.833626,18.7682922 C109.935601,19.1916449 110.083929,19.5547395 110.27861,19.8575758 C110.47329,20.1604121 110.709688,20.3952647 110.987803,20.5621337 C111.265918,20.7290027 111.581115,20.8124372 111.933394,20.8124372 Z M111.933394,20.0429858 C111.704721,20.0429858 111.50386,19.973457 111.330811,19.8343995 C111.157762,19.6953421 111.014069,19.5052968 110.899733,19.2642638 C110.785397,19.0232309 110.700417,18.7389356 110.644794,18.4113779 C110.589171,18.0838203 110.56136,17.7346315 110.56136,17.3638116 C110.56136,16.9929916 110.589171,16.6438028 110.644794,16.3162452 C110.700417,15.9886875 110.785397,15.7043922 110.899733,15.4633593 C111.014069,15.2223263 111.157762,15.0322811 111.330811,14.8932236 C111.50386,14.7541661 111.704721,14.6846373 111.933394,14.6846373 C112.155886,14.6846373 112.352111,14.7541661 112.52207,14.8932236 C112.692029,15.0322811 112.834177,15.2223263 112.948513,15.4633593 C113.062849,15.7043922 113.149374,15.9886875 113.208087,16.3162452 C113.2668,16.6438028 113.296157,16.9929916 113.296157,17.3638116 C113.296157,17.7346315 113.2668,18.0838203 113.208087,18.4113779 C113.149374,18.7389356 113.062849,19.0232309 112.948513,19.2642638 C112.834177,19.5052968 112.692029,19.6953421 112.52207,19.8343995 C112.352111,19.973457 112.155886,20.0429858 111.933394,20.0429858 Z M116.105118,20.6548387 L116.105118,15.5653347 L116.13293,15.5653347 L118.228062,20.6548387 L119.201465,20.6548387 L119.201465,14.0913254 L118.432013,14.0913254 L118.432013,19.1900999 L118.404202,19.1900999 L116.336881,14.0913254 L115.335667,14.0913254 L115.335667,20.6548387 L116.105118,20.6548387 Z" id="path-10"></path>
        <path d="M21.82587,13.3150161 C21.20723,5.92708065 14.82817,0.117309677 7.04482,0.117309677 C4.53853,0.117309677 2.17873,0.72206129 0.10849,1.7853871 C7.91445,2.44493226 14.03929,8.7906871 14.03929,16.5259548 C14.03929,17.614471 13.91655,18.6748548 13.68646,19.6964419 C17.1722,18.6606968 20.07863,16.3448419 21.82587,13.3150161" id="path-11"></path>
        <path d="M8.96623939,13.5954194 L7.78522593,13.5954194 C5.77185081,13.5186917 3.86281786,13.0508995 2.13294,12.2721 C0.85025,10.2193645 0.11153,7.81157419 0.11153,5.23682903 C0.11153,4.23730645 0.22591,3.26407742 0.43719,2.32578387 C3.15609,4.74791613 6.7811,6.22973226 10.76578,6.22973226 C15.88552,6.22973226 20.41341,3.78645484 23.18475,0.040083871 C22.7625791,7.41356899 16.6074031,13.305087 8.96623939,13.5954194 Z" id="path-13"></path>
        <path d="M15.99344,3.58916129 C9.74719,5.44607419 5.20524,11.0785935 5.20524,17.7400548 C5.20524,19.8183484 5.64908,21.7955129 6.44708,23.5902774 C2.55436,20.9993516 0,16.6566871 0,11.7344613 C0,6.99978387 2.36284,2.80072258 6.00761,0.181480645 C6.23238,0.171183871 6.4581,0.164932258 6.68534,0.164932258 C10.25734,0.164932258 13.51584,1.45993548 15.99344,3.58916129 Z" id="path-15"></path>
    </defs>
    <g id="Page-1" stroke="none" stroke-width="1" fill="none" fill-rule="evenodd">
        <g id="ILPA-(1)" transform="translate(0.000000, -1.000000)">
            <g id="INN" fill-rule="nonzero">
                <use fill="#000000" xlink:href="#path-1"></use>
                <use fill="#FFFFFF" xlink:href="#path-1"></use>
            </g>
            <g id="O" fill-rule="nonzero">
                <use fill="#000000" xlink:href="#path-2"></use>
                <use fill="#FFFFFF" xlink:href="#path-2"></use>
            </g>
            <g id="V" fill-rule="nonzero">
                <use fill="#000000" xlink:href="#path-3"></use>
                <use fill="#FFFFFF" xlink:href="#path-3"></use>
            </g>
            <g id="A" fill-rule="nonzero">
                <use fill="#000000" xlink:href="#path-4"></use>
                <use fill="#FFFFFF" xlink:href="#path-4"></use>
            </g>
            <g id="TIVELENDING" fill-rule="nonzero">
                <use fill="#000000" xlink:href="#path-5"></use>
                <use fill="#FFFFFF" xlink:href="#path-5"></use>
            </g>
            <g id="PL" fill-rule="nonzero">
                <use fill="#000000" xlink:href="#path-6"></use>
                <use fill="#FFFFFF" xlink:href="#path-6"></use>
            </g>
            <g id="A" fill-rule="nonzero">
                <use fill="#000000" xlink:href="#path-7"></use>
                <use fill="#FFFFFF" xlink:href="#path-7"></use>
            </g>
            <g id="TFORMASSOCI" fill-rule="nonzero">
                <use fill="#000000" xlink:href="#path-8"></use>
                <use fill="#FFFFFF" xlink:href="#path-8"></use>
            </g>
            <g id="A" fill-rule="nonzero">
                <use fill="#000000" xlink:href="#path-9"></use>
                <use fill="#FFFFFF" xlink:href="#path-9"></use>
            </g>
            <g id="TION" fill-rule="nonzero">
                <use fill="#000000" xlink:href="#path-10"></use>
                <use fill="#FFFFFF" xlink:href="#path-10"></use>
            </g>
            <g id="Group-3" transform="translate(7.790000, 1.735484)">
                <g id="Fill-1-Clipped">
                    <mask id="mask-12" fill="white">
                        <use xlink:href="#path-11"></use>
                    </mask>
                    <g id="path-1"></g>
                    <path d="M21.82587,13.3150161 C21.20723,5.92708065 14.82817,0.117309677 7.04482,0.117309677 C4.53853,0.117309677 2.17873,0.72206129 0.10849,1.7853871 C7.91445,2.44493226 14.03929,8.7906871 14.03929,16.5259548 C14.03929,17.614471 13.91655,18.6748548 13.68646,19.6964419 C17.1722,18.6606968 20.07863,16.3448419 21.82587,13.3150161" id="Fill-1" fill="#FFFFFF" fill-rule="nonzero" mask="url(#mask-12)"></path>
                </g>
            </g>
            <g id="Group-6" transform="translate(6.460000, 16.996774)">
                <g id="Clip-5" fill="#FFFFFF" fill-rule="nonzero">
                    <path d="M8.96623939,13.5954194 L7.78522593,13.5954194 C5.77185081,13.5186917 3.86281786,13.0508995 2.13294,12.2721 C0.85025,10.2193645 0.11153,7.81157419 0.11153,5.23682903 C0.11153,4.23730645 0.22591,3.26407742 0.43719,2.32578387 C3.15609,4.74791613 6.7811,6.22973226 10.76578,6.22973226 C15.88552,6.22973226 20.41341,3.78645484 23.18475,0.040083871 C22.7625791,7.41356899 16.6074031,13.305087 8.96623939,13.5954194 Z" id="path-3"></path>
                </g>
                <g id="Fill-4-Clipped">
                    <mask id="mask-14" fill="white">
                        <use xlink:href="#path-13"></use>
                    </mask>
                    <g id="path-3"></g>
                    <polygon id="Fill-4" fill="#FFFFFF" fill-rule="nonzero" mask="url(#mask-14)" points="-6.46 13.5954194 114.40166 13.5954194 114.40166 -15.1439806 -6.46 -15.1439806"></polygon>
                </g>
            </g>
            <g id="Group-9" transform="translate(0.000000, 4.493548)">
                <g id="Fill-7-Clipped">
                    <mask id="mask-16" fill="white">
                        <use xlink:href="#path-15"></use>
                    </mask>
                    <g id="path-5"></g>
                    <polygon id="Fill-7" fill="#FFFFFF" fill-rule="nonzero" mask="url(#mask-16)" points="0 26.0986452 120.86166 26.0986452 120.86166 -2.64075484 0 -2.64075484"></polygon>
                </g>
            </g>
        </g>
    </g>
</svg>