<svg width="106" height="41" xmlns="http://www.w3.org/2000/svg"><g fill="#FFF" fill-rule="evenodd"><path d="M37.74 29.044v8.802H3.146V3.154h34.596v8.769h3.145V0H0v41h40.886V29.044H37.74"/><path d="M10.6 24.111l1.606-1.894c1.027.808 2.171 1.234 3.376 1.234.773 0 1.19-.265 1.19-.705v-.03c0-.425-.343-.66-1.755-.983-2.216-.499-3.926-1.116-3.926-3.23v-.03c0-1.908 1.531-3.288 4.03-3.288 1.769 0 3.152.47 4.282 1.365l-1.442 2.01c-.952-.66-1.993-1.011-2.915-1.011-.698 0-1.04.294-1.04.66v.029c0 .47.356.676 1.799 1 2.394.513 3.88 1.276 3.88 3.2v.03c0 2.098-1.68 3.347-4.208 3.347-1.843 0-3.598-.573-4.877-1.704M21.957 15.185h2.92l2.38 4.115 2.38-4.115h2.92v10.63h-2.75V19.71l-2.55 4.161H27.2l-2.536-4.13v6.074h-2.707v-10.63M40.407 21.653l-1.055-3-1.07 3h2.125zm-2.301-6.468h2.532l4.033 10.63h-2.815l-.69-1.885H37.51l-.677 1.885h-2.762l4.035-10.63zM51.107 20.288c1.009 0 1.59-.487 1.59-1.26v-.032c0-.835-.612-1.26-1.606-1.26h-1.94v2.552h1.956zm-4.921-5.103h5.058c1.636 0 2.767.425 3.486 1.154.627.608.947 1.428.947 2.476v.03c0 1.625-.87 2.703-2.201 3.265l2.553 3.705h-3.424l-2.155-3.22h-1.3v3.22h-2.964v-10.63zM60.65 17.767h-3.107v-2.582h9.086v2.582H63.52v8.048H60.65v-8.048M75.293 23.037c0-1.086-.944-1.706-2.742-1.706h-3.258v3.483h3.464c1.562 0 2.536-.663 2.536-1.777zm-.575-4.47c0-.987-.811-1.621-2.286-1.621h-3.14v3.398h3.052c1.4 0 2.374-.607 2.374-1.777zm1.179-.155c0 1.298-.826 1.96-1.637 2.298 1.224.353 2.211 1.03 2.211 2.397 0 1.707-1.488 2.708-3.743 2.708h-4.585v-9.87h4.393c2.035 0 3.36.958 3.36 2.467zM84.028 16.257c-2.375 0-4.068 1.88-4.068 4.229s1.722 4.257 4.097 4.257c2.376 0 4.069-1.88 4.069-4.228 0-2.35-1.723-4.258-4.098-4.258zm0 9.558c-3.162 0-5.285-2.452-5.285-5.3s2.152-5.33 5.314-5.33 5.286 2.453 5.286 5.3c0 2.849-2.153 5.33-5.315 5.33zM97.836 25.815l-3.215-4.244-3.215 4.244H90.1l3.86-5.034-3.716-4.837h1.334l3.087 4.034 3.057-4.034h1.32l-3.717 4.823 3.86 5.048h-1.349M102.758 18.222h-.33v-2.04h-.97v-.238h2.27v.238h-.97v2.04M104.868 17.597h-.014l-.864-1.217v1.842h-.261v-2.278h.27l.865 1.243.865-1.243H106v2.278h-.268v-1.845l-.864 1.22"/></g></svg>
