<svg id="Layer_1" data-name="Layer 1" xmlns="http://www.w3.org/2000/svg" width="408" height="134.41">
<defs>
<style>.cls-4{fill:#fff}</style>
</defs>
<path fill="#005ea6" d="M-3.12-9H427.4v100H-3.12z"/>
<path class="cls-4" d="M-1.11 82.42h430.52v4.29H-1.11z"/>
<path fill="#c41623" d="M-3.12 86.71H427.4v10.6H-3.12z"/>
<path class="cls-4" d="M76.75 65.24V23.1H63.52v40.31c0 6.28-5.36 10-12.93 10-8.59.02-13.39-3.72-13.39-10.07V23.1H24v41.38C24 78.64 35.22 84.3 50.28 84.3c10.4 0 18.78-2.85 23.16-8.6v7.83h11.8V71.22h-9.43a18.52 18.52 0 00.94-5.98zM140 66.09c0-10.33-6.27-15.3-18.28-17.6-1.38-.23-5.36-1.07-8.42-1.68-9.87-2-13.46-3.75-13.46-8.19 0-3.44 2-5.66 12-5.66 7.65 0 10.94 1.76 12.54 5.13a8.41 8.41 0 01.84 3h13.62a18.44 18.44 0 00-1.38-5.81c-3.05-7.65-10.17-12.93-25.32-12.93-17.74 0-26 6.88-26 17.14 0 10 7.26 15.45 19 17.67 2.67.53 7.11 1.38 8.87 1.68 9.78 1.84 12.31 3.59 12.31 8.57 0 4-3.21 6.5-12.4 6.5-8 0-12-1.53-13.68-5a10.64 10.64 0 01-.8-3.91H85.83a25.31 25.31 0 00.85 6.19c2.44 7.65 9 13.16 27.29 13.16 11.49 0 19.13-3.22 23-8.55v7.71h11.8V71.22h-9.53a17.77 17.77 0 00.76-5.13zM191.46 62.03L168.21 23.1h-15.38v60.43h12.63V42.6l24.32 40.93h14.3V23.1h-12.62v38.93zM233.31 37.9c-9.73 0-17.43 3.64-21.73 9.88A22.83 22.83 0 00207.69 61c0 5.6 1.22 10.06 3.41 13.54 4.3 6.81 12.31 9.73 22.21 9.73 7.21 0 12.65-1.54 16.54-4.05A18.25 18.25 0 00258 69h-12.78c-.24 1-1.38 2.43-3.72 3.48a20.39 20.39 0 01-8.19 1.52c-4.86 0-8.5-1.29-10.38-3.32-1.53-1.7-2.43-3.23-2.43-5.27h37.77c.73-6.72-.48-13.13-3.81-18-3.96-5.79-10.94-9.51-21.15-9.51zm-12.89 19a9.24 9.24 0 012.76-5.35c2.19-1.94 5.6-3.16 10.21-3.16 4.87 0 7.94 1.54 9.81 3.41a7.81 7.81 0 012.18 5.1zM325.11 39l-10.45 33.1L304.6 39h-14.42l-9.8 33.15L269.68 39h-13.54l16 44.58h15.41s8.76-25.61 8.84-27.16c.08-.48.55-3.13.55-3.13s.5 2.65.58 3.22c.16 1.46 8.92 27.07 8.92 27.07h15.32L337.85 39zM368.62 56.46c-1.53-.25-7.77-1.15-10.37-1.54-6.32-1-7.71-1.7-7.71-3.65 0-2.1 2.12-3.24 9.25-3.24 6.16 0 8.51 1.06 9.4 2.27a5.65 5.65 0 01.57 2.43h12.57a21.91 21.91 0 00-.82-5.35c-2.26-6.4-10-9.56-22.2-9.56-14.36 0-21.48 5.19-21.48 13.12 0 8.52 4.7 12.81 14.51 14.19 2.67.4 8 1.22 9.72 1.46 6.56 1 9.24 1.53 9.24 4s-2.27 3.89-9.64 3.89c-7.06 0-10.46-.56-11.27-2.67a6.56 6.56 0 01-.4-2.27H337.1a18.46 18.46 0 00.48 4.46c1.87 7.29 9 10.29 24.08 10.29 15.4 0 22.37-4.7 22.37-13.94-.03-8.3-4.71-12.27-15.41-13.89zM215 35.33a9.2 9.2 0 003.35-.58 6.72 6.72 0 00.57.46h4.62c-.88-.7-1.8-1.4-2.6-2a5.4 5.4 0 001.64-3.77h-3.4a3.27 3.27 0 01-.66 1.85c-.7-.58-1.4-1.2-1.94-1.65a4.33 4.33 0 002.43-3.36v-.52c-.09-1.48-1.44-2.82-3.75-2.82-2.53 0-4 1.42-4.06 2.91v.62a4.7 4.7 0 001 2.56c-1.43.68-2.75 1.54-2.78 2.92v.63c.14 2.23 2.74 2.75 5.58 2.75zm-.59-9a.79.79 0 01.81-.8.7.7 0 01.77.75v.25c0 .47-.47.88-1.09 1.24a2.14 2.14 0 01-.49-1.11.91.91 0 01.04-.32zm-.41 4.74c.51.51 1.23 1.08 1.93 1.67a4.62 4.62 0 01-1.07.12c-1.26 0-1.81-.22-1.81-.8.01-.35.4-.68.95-.99zM234.07 35.21s1.86-7 1.88-7.39c0 .39 1.86 7.39 1.86 7.39h4.06l3.41-12.14h-3.61s-1.82 7.5-1.82 7.88c0-.38-1.84-7.88-1.84-7.88h-3.83s-1.79 7.5-1.79 7.88c0-.38-1.86-7.88-1.86-7.88h-4L230 35.21zM251.89 35.4c4.45 0 6.48-2.1 6.48-6.37 0-4.06-1.89-6.18-6.48-6.18s-6.48 2.35-6.48 6.23c0 4.15 2.03 6.32 6.48 6.32zm0-9.68c2.06 0 2.72 1 2.72 3.4 0 2.71-1 3.43-2.7 3.43s-2.7-.86-2.7-3.43.7-3.4 2.68-3.4zM263.68 31.1h2.51l2.13 4.11h4.17l-2.84-4.86a2.34 2.34 0 001.5-1.15 4.5 4.5 0 00.53-2.29 4 4 0 00-.7-2.57 3.83 3.83 0 00-3.28-1.27H260v12.15h3.67zm0-5.17h3.14c.54 0 .89.12 1.07.51a1.68 1.68 0 01.13.78 2.07 2.07 0 01-.14.78c-.13.3-.52.4-1 .4h-3.22zM283.84 32.21h-5.83v-9.14h-3.76v12.14h9.59v-3zM296.71 33.45c.67-1 .85-2 .85-4.55 0-2.21-.14-3.22-.89-4.25s-2.11-1.58-4.31-1.58h-6.66v12.14h6.84c2.19 0 3.46-.64 4.17-1.76zm-7.32-1.1v-6.44h2.35a2.1 2.1 0 011.83.65 4.89 4.89 0 01.43 2.34 6.39 6.39 0 01-.36 2.75 2.1 2.1 0 01-1.86.7zM307.41 31.1h2.51l2.14 4.11h4.16l-2.84-4.86a2.34 2.34 0 001.5-1.15 4.5 4.5 0 00.53-2.29 4.08 4.08 0 00-.7-2.57 3.83 3.83 0 00-3.28-1.27h-7.68v12.15h3.66zm0-5.17h3.13c.53 0 .9.12 1.09.51a2 2 0 01.11.78 2.06 2.06 0 01-.13.78c-.13.3-.54.4-1 .4h-3.21zM328.52 32.38h-6.73v-1.8h6.42v-2.89h-6.42v-1.76h6.67v-2.86h-10.33v12.14h10.39v-2.83zM334.65 31.41h3.74a4.4 4.4 0 003.36-1.23 4.17 4.17 0 00.9-2.95 4 4 0 00-1.1-3.16 4.17 4.17 0 00-3.17-1h-7.47v12.14h3.74v-3.8zm0-5.52h3a1.17 1.17 0 011.17.58 1.66 1.66 0 01.16.85 1.55 1.55 0 01-.15.8c-.17.34-.52.57-1.23.57h-3v-2.8zM350.44 35.4c4.43 0 6.46-2.1 6.46-6.37 0-4.06-1.89-6.18-6.46-6.18S344 25.2 344 29.08c0 4.15 2 6.32 6.44 6.32zm0-9.68c2.05 0 2.71 1 2.71 3.4 0 2.71-1 3.43-2.71 3.43s-2.7-.86-2.7-3.43.7-3.4 2.7-3.4zM362.26 31.1h2.51l2.14 4.11h4.16l-2.84-4.86a2.35 2.35 0 001.51-1.15 4.61 4.61 0 00.53-2.29 4.14 4.14 0 00-.7-2.57 3.88 3.88 0 00-3.29-1.27h-7.69v12.15h3.67zm0-5.17h3.13c.53 0 .9.12 1.08.51a1.83 1.83 0 01.12.78 2.28 2.28 0 01-.13.78c-.13.3-.54.4-1 .4h-3.2zM375.21 35.21H379v-9.22h3.88v-2.92h-11.52v2.92h3.85v9.22z"/>
</svg>
