<svg xmlns="http://www.w3.org/2000/svg" viewBox="0 0 75 16" fill="#fff"><path class="svg-footer-ondecklogo__on" d="M12.07 10.3c0 3.42-2.59 5.63-6 5.63-3.4 0-5.96-2.2-5.96-5.6 0-3.42 2.58-5.64 6-5.64 3.4 0 5.96 2.2 5.96 5.6zm-6.01 2.77c1.6 0 2.73-1.18 2.73-2.78s-1.1-2.73-2.7-2.73a2.66 2.66 0 00-2.73 2.78c.02 1.6 1.1 2.73 2.7 2.73zm10.81 2.59h-3.19V4.98h3.2v1.2A4.38 4.38 0 0120.2 4.7c2.48 0 3.87 1.67 3.87 4.51v6.45h-3.19V9.7c0-1.37-.76-2.2-2-2.2s-2.02.83-2.02 2.17v5.98h.01z"></path><path d="M34.22 14.4a4.13 4.13 0 01-3.37 1.54c-3.17 0-5.13-2.46-5.13-5.62 0-3.17 2.04-5.63 5.2-5.63 1.46 0 2.55.53 3.3 1.45V.06h3.2v15.59h-3.2V14.4zm-2.6-1.28c1.61 0 2.72-1.21 2.72-2.84 0-1.57-1.07-2.75-2.65-2.75-1.62 0-2.71 1.18-2.71 2.8 0 1.56 1.06 2.79 2.63 2.79zm7.4-2.8c0-3.38 2.49-5.63 5.81-5.63 3.2 0 5.56 2.26 5.56 5.4 0 .36-.03.75-.05 1.09h-8.03a2.74 2.74 0 002.75 2.04c1.02 0 1.83-.39 2.56-1.2l1.97 1.9a6 6 0 01-4.68 2.02c-3.37 0-5.89-2.25-5.89-5.62zm3.33-1.21h4.72a2.32 2.32 0 00-2.33-1.76c-1.23 0-2.06.72-2.39 1.76zm15.2 3.94c1 0 1.83-.53 2.45-1.34l2.15 1.91a5.8 5.8 0 01-4.66 2.3c-3.37 0-5.89-2.24-5.89-5.61 0-3.38 2.52-5.63 5.9-5.63 1.9 0 3.52.8 4.65 2.26L60 8.93a3.05 3.05 0 00-2.46-1.34c-1.58 0-2.67 1.15-2.67 2.73 0 1.57 1.1 2.73 2.67 2.73zm10.38-1.98l-1.3.87v3.72h-3.2V.06h3.2v8.56l6.75-4.57h.13v3.53l-2.83 1.88 3.57 6.07v.13H70.6z"></path></svg>