<svg xmlns="http://www.w3.org/2000/svg" width="20" height="20" viewBox="0 0 20 20">
  <path id="Instagram_Glyph_White" d="M8.358,2.573a7.294,7.294,0,0,0-2.426.47A5.114,5.114,0,0,0,3.013,5.971,7.347,7.347,0,0,0,2.553,8.4C2.506,9.464,2.5,9.807,2.5,12.522s.017,3.056.069,4.123a7.31,7.31,0,0,0,.47,2.426,5.111,5.111,0,0,0,2.93,2.919,7.341,7.341,0,0,0,2.428.46c1.064.047,1.407.057,4.122.052s3.057-.017,4.123-.068a7.317,7.317,0,0,0,2.425-.469,5.111,5.111,0,0,0,2.919-2.93,7.315,7.315,0,0,0,.46-2.427c.047-1.067.058-1.408.052-4.123s-.017-3.056-.068-4.122a7.3,7.3,0,0,0-.469-2.426A4.909,4.909,0,0,0,20.8,4.166a4.88,4.88,0,0,0-1.773-1.15,7.318,7.318,0,0,0-2.428-.46C15.538,2.511,15.2,2.5,12.48,2.5s-3.056.017-4.122.069m.117,18.078a5.549,5.549,0,0,1-1.857-.34,3.114,3.114,0,0,1-1.152-.746,3.08,3.08,0,0,1-.75-1.148,5.538,5.538,0,0,1-.348-1.857c-.05-1.054-.06-1.37-.066-4.04s0-2.986.051-4.04a5.534,5.534,0,0,1,.34-1.857,3.31,3.31,0,0,1,1.894-1.9,5.537,5.537,0,0,1,1.856-.348c1.055-.05,1.371-.06,4.04-.066s2.986,0,4.041.051a5.53,5.53,0,0,1,1.857.34,3.311,3.311,0,0,1,1.9,1.895,5.509,5.509,0,0,1,.347,1.855c.05,1.055.062,1.371.066,4.04s0,2.986-.051,4.04a5.556,5.556,0,0,1-.34,1.858,3.312,3.312,0,0,1-1.895,1.9,5.539,5.539,0,0,1-1.855.348c-1.055.05-1.371.06-4.041.066s-2.985-.005-4.04-.051M16.627,7.158a1.2,1.2,0,1,0,1.2-1.2,1.2,1.2,0,0,0-1.2,1.2M7.365,12.513a5.135,5.135,0,1,0,5.125-5.145,5.134,5.134,0,0,0-5.125,5.145m1.8,0a3.333,3.333,0,1,1,3.34,3.327,3.333,3.333,0,0,1-3.34-3.327" transform="translate(-2.499 -2.503)" fill="#fff"/>
</svg>
